<?xml version="1.0" encoding="utf-8"?>
<!-- Generator: Adobe Illustrator 15.1.0, SVG Export Plug-In . SVG Version: 6.00 Build 0)  -->
<!DOCTYPE svg PUBLIC "-//W3C//DTD SVG 1.1//EN" "http://www.w3.org/Graphics/SVG/1.1/DTD/svg11.dtd">
<svg version="1.1" id="Layer_1" xmlns="http://www.w3.org/2000/svg" xmlns:xlink="http://www.w3.org/1999/xlink" x="0px" y="0px"
	 width="1024px" height="443.5px" viewBox="0 0 1024 443.5" enable-background="new 0 0 1024 443.5" xml:space="preserve">
<g>
	<g>
		<g>
			<g>
				<defs>
					<path id="SVGID_1_" d="M508.372,37.982h18.082c43.701,0,79.555,35.848,79.555,79.553v79.554h-53.382
						c-46.77,0-96.597-44.861-111.706-100.33c1.114,35.268,11.995,72.083,45.87,100.33h-18.079
						c-43.707,0-79.555-35.848-79.555-79.554V37.982h53.381c46.769,0,96.592,44.86,111.705,100.331
						C553.133,103.045,542.244,66.228,508.372,37.982 M364.293,13.117v104.418c0,57.431,46.987,104.416,104.419,104.416h162.161
						V117.535c0-57.431-46.99-104.418-104.419-104.418H364.293z"/>
				</defs>
				<clipPath id="SVGID_2_">
					<use xlink:href="#SVGID_1_"  overflow="visible"/>
				</clipPath>
				
					<linearGradient id="SVGID_3_" gradientUnits="userSpaceOnUse" x1="1140.8984" y1="-116.4639" x2="1141.6702" y2="-116.4639" gradientTransform="matrix(-302.2244 -257.8459 257.8459 -302.2244 375452.6875 259195.8906)">
					<stop  offset="0" style="stop-color:#48BFAB"/>
					<stop  offset="1" style="stop-color:#93C83E"/>
				</linearGradient>
				<polygon clip-path="url(#SVGID_2_)" fill="url(#SVGID_3_)" points="518.573,353.579 261.178,133.979 476.591,-118.509 
					733.987,101.091 				"/>
			</g>
		</g>
	</g>
</g>
<polygon fill="#FFFFFF" points="36.573,263.532 62.294,263.532 122.562,356.223 122.562,263.532 149.375,263.532 149.375,404.383 
	123.58,404.383 63.384,311.979 63.384,404.383 36.573,404.383 "/>
<g>
	<g>
		<g>
			<g>
				<defs>
					<rect id="SVGID_4_" width="1024" height="1024"/>
				</defs>
				<clipPath id="SVGID_5_">
					<use xlink:href="#SVGID_4_"  overflow="visible"/>
				</clipPath>
				<path clip-path="url(#SVGID_5_)" fill="#FFFFFF" d="M183.423,300.205h26.43v50.175c0,9.767,0.676,16.552,2.021,20.345
					c1.342,3.799,3.503,6.75,6.478,8.861c2.976,2.104,6.636,3.154,10.993,3.154c4.345,0,8.042-1.035,11.08-3.11
					c3.042-2.077,5.299-5.125,6.767-9.144c1.094-3,1.638-9.414,1.638-19.248v-51.033h26.139v44.14
					c0,18.194-1.438,30.64-4.312,37.345c-3.515,8.174-8.678,14.44-15.516,18.813c-6.825,4.374-15.508,6.56-26.042,6.56
					c-11.427,0-20.662-2.556-27.72-7.654c-7.052-5.108-12.02-12.229-14.891-21.356c-2.041-6.317-3.064-17.808-3.064-34.471
					L183.423,300.205L183.423,300.205z"/>
			</g>
		</g>
	</g>
	<g>
		<g>
			<g>
				<defs>
					<rect id="SVGID_6_" width="1024" height="1024"/>
				</defs>
				<clipPath id="SVGID_7_">
					<use xlink:href="#SVGID_6_"  overflow="visible"/>
				</clipPath>
				<polygon clip-path="url(#SVGID_7_)" fill="#FFFFFF" points="309.263,261.811 335.402,261.811 335.402,300.205 350.909,300.205 
					350.909,322.705 335.402,322.705 335.402,404.381 309.263,404.381 309.263,322.705 295.852,322.705 295.852,300.205 
					309.263,300.205 				"/>
			</g>
		</g>
	</g>
	<g>
		<g>
			<g>
				<defs>
					<rect id="SVGID_8_" width="1024" height="1024"/>
				</defs>
				<clipPath id="SVGID_9_">
					<use xlink:href="#SVGID_8_"  overflow="visible"/>
				</clipPath>
				<path clip-path="url(#SVGID_9_)" fill="#FFFFFF" d="M363.652,300.205h22.402v13.115c2.428-5.172,5.652-9.096,9.674-11.778
					c4.021-2.681,8.422-4.021,13.211-4.021c3.384,0,6.929,0.896,10.631,2.684l-8.139,22.5c-3.065-1.53-5.585-2.301-7.564-2.301
					c-4.021,0-7.421,2.492-10.196,7.468c-2.782,4.983-4.169,14.747-4.169,29.303l0.102,5.075v42.131h-25.95L363.652,300.205
					L363.652,300.205z"/>
			</g>
		</g>
	</g>
	<g>
		<g>
			<g>
				<defs>
					<rect id="SVGID_10_" width="1024" height="1024"/>
				</defs>
				<clipPath id="SVGID_11_">
					<use xlink:href="#SVGID_10_"  overflow="visible"/>
				</clipPath>
				<path clip-path="url(#SVGID_11_)" fill="#FFFFFF" d="M447.563,257.304c4.581,0,8.515,1.661,11.791,4.983
					c3.276,3.316,4.914,7.343,4.914,12.063c0,4.657-1.615,8.635-4.867,11.92c-3.243,3.287-7.126,4.932-11.646,4.932
					c-4.643,0-8.612-1.676-11.888-5.027c-3.277-3.352-4.915-7.422-4.915-12.205c0-4.596,1.622-8.525,4.87-11.777
					C439.061,258.932,442.98,257.304,447.563,257.304 M434.493,300.205h26.139v104.178h-26.139V300.205z"/>
			</g>
		</g>
	</g>
	<g>
		<g>
			<g>
				<defs>
					<rect id="SVGID_12_" width="1024" height="1024"/>
				</defs>
				<clipPath id="SVGID_13_">
					<use xlink:href="#SVGID_12_"  overflow="visible"/>
				</clipPath>
				<path clip-path="url(#SVGID_13_)" fill="#FFFFFF" d="M566.129,259.989h26.141v144.392h-26.141V393.37
					c-5.105,4.854-10.221,8.344-15.354,10.481c-5.13,2.14-10.689,3.208-16.688,3.208c-13.458,0-25.095-5.216-34.909-15.65
					c-9.814-10.438-14.729-23.413-14.729-38.925c0-16.084,4.754-29.27,14.253-39.545c9.499-10.278,21.044-15.42,34.626-15.42
					c6.244,0,12.113,1.184,17.597,3.543c5.482,2.367,10.551,5.901,15.209,10.629v-51.702H566.129L566.129,259.989z M538.65,321.652
					c-8.084,0-14.793,2.854-20.134,8.568c-5.348,5.713-8.021,13.037-8.021,21.973c0,9.002,2.721,16.408,8.157,22.217
					c5.441,5.813,12.137,8.714,20.087,8.714c8.214,0,15.018-2.854,20.425-8.563c5.408-5.717,8.115-13.203,8.115-22.455
					c0-9.063-2.707-16.405-8.115-22.025C553.754,324.462,546.916,321.652,538.65,321.652"/>
			</g>
		</g>
	</g>
	<g>
		<g>
			<g>
				<defs>
					<rect id="SVGID_14_" width="1024" height="1024"/>
				</defs>
				<clipPath id="SVGID_15_">
					<use xlink:href="#SVGID_14_"  overflow="visible"/>
				</clipPath>
				<path clip-path="url(#SVGID_15_)" fill="#FFFFFF" d="M672.508,297.521c9.827,0,19.063,2.457,27.723,7.375
					c8.644,4.912,15.396,11.588,20.243,20.011c4.852,8.427,7.279,17.521,7.279,27.288c0,9.832-2.443,19.021-7.324,27.578
					c-4.886,8.553-11.539,15.24-19.964,20.059c-8.43,4.824-17.717,7.229-27.867,7.229c-14.938,0-27.688-5.313-38.254-15.939
					c-10.566-10.63-15.846-23.535-15.846-38.729c0-16.278,5.972-29.845,17.901-40.693
					C646.875,302.247,658.902,297.521,672.508,297.521 M672.932,322.13c-8.114,0-14.884,2.826-20.285,8.476
					c-5.403,5.646-8.1,12.877-8.1,21.687c0,9.063,2.66,16.406,8.008,22.026c5.335,5.613,12.1,8.424,20.283,8.424
					c8.188,0,14.991-2.838,20.427-8.521c5.438-5.681,8.156-12.988,8.156-21.929c0-8.935-2.675-16.198-8.009-21.782
					C688.073,324.923,681.241,322.13,672.932,322.13"/>
			</g>
		</g>
	</g>
	<g>
		<g>
			<g>
				<defs>
					<rect id="SVGID_16_" width="1024" height="1024"/>
				</defs>
				<clipPath id="SVGID_17_">
					<use xlink:href="#SVGID_16_"  overflow="visible"/>
				</clipPath>
				<path clip-path="url(#SVGID_17_)" fill="#FFFFFF" d="M855.957,321.271l-21.76,11.965c-4.096-4.276-8.133-7.245-12.123-8.905
					c-3.998-1.657-8.682-2.483-14.051-2.483c-9.78,0-17.688,2.907-23.729,8.743c-6.041,5.83-9.057,13.306-9.057,22.416
					c0,8.861,2.898,16.095,8.727,21.704c5.813,5.605,13.444,8.408,22.906,8.408c11.693,0,20.807-3.985,27.323-11.967l20.611,14.109
					c-11.17,14.532-26.938,21.797-47.303,21.797c-18.317,0-32.667-5.422-43.037-16.277c-10.372-10.854-15.559-23.551-15.559-38.106
					c0-10.089,2.521-19.376,7.563-27.866c5.037-8.486,12.079-15.156,21.111-20.01c9.03-4.852,19.133-7.279,30.303-7.279
					c10.339,0,19.632,2.059,27.868,6.178C843.993,307.813,850.727,313.676,855.957,321.271"/>
			</g>
		</g>
	</g>
	<g>
		<g>
			<g>
				<defs>
					<rect id="SVGID_18_" width="1024" height="1024"/>
				</defs>
				<clipPath id="SVGID_19_">
					<use xlink:href="#SVGID_18_"  overflow="visible"/>
				</clipPath>
				<polygon clip-path="url(#SVGID_19_)" fill="#FFFFFF" points="884.595,259.989 910.736,259.989 910.736,343.156 949.23,300.205 
					982.054,300.205 937.176,350.135 987.426,404.381 954.976,404.381 910.736,356.368 910.736,404.381 884.595,404.381 				"/>
			</g>
		</g>
	</g>
</g>
</svg>
